<svg width="181" height="23" viewBox="0 0 181 23" fill="none" xmlns="http://www.w3.org/2000/svg">
<path d="M5.14286 12.2857C5.14286 12.1339 5.08036 11.9911 4.97321 11.8839L0.973214 7.88393C0.866071 7.77678 0.723214 7.71428 0.571429 7.71428C0.258929 7.71428 0 7.97321 0 8.28571V16.2857C0 16.5982 0.258929 16.8571 0.571429 16.8571C0.723214 16.8571 0.866071 16.7946 0.973214 16.6875L4.97321 12.6875C5.08036 12.5804 5.14286 12.4375 5.14286 12.2857ZM27.962 6.768V18H25.226V11.264L22.714 18H20.506L17.978 11.248V18H15.242V6.768H18.474L21.626 14.544L24.746 6.768H27.962ZM33.9935 18.128C33.1188 18.128 32.3295 17.9413 31.6255 17.568C30.9322 17.1947 30.3828 16.6613 29.9775 15.968C29.5828 15.2747 29.3855 14.464 29.3855 13.536C29.3855 12.6187 29.5882 11.8133 29.9935 11.12C30.3988 10.416 30.9535 9.87733 31.6575 9.504C32.3615 9.13067 33.1508 8.944 34.0255 8.944C34.9002 8.944 35.6895 9.13067 36.3935 9.504C37.0975 9.87733 37.6522 10.416 38.0575 11.12C38.4628 11.8133 38.6655 12.6187 38.6655 13.536C38.6655 14.4533 38.4575 15.264 38.0415 15.968C37.6362 16.6613 37.0762 17.1947 36.3615 17.568C35.6575 17.9413 34.8682 18.128 33.9935 18.128ZM33.9935 15.76C34.5162 15.76 34.9588 15.568 35.3215 15.184C35.6948 14.8 35.8815 14.2507 35.8815 13.536C35.8815 12.8213 35.7002 12.272 35.3375 11.888C34.9855 11.504 34.5482 11.312 34.0255 11.312C33.4922 11.312 33.0495 11.504 32.6975 11.888C32.3455 12.2613 32.1695 12.8107 32.1695 13.536C32.1695 14.2507 32.3402 14.8 32.6815 15.184C33.0335 15.568 33.4708 15.76 33.9935 15.76ZM42.853 10.56C43.173 10.0693 43.573 9.68533 44.053 9.408C44.533 9.12 45.0663 8.976 45.653 8.976V11.872H44.901C44.2183 11.872 43.7063 12.0213 43.365 12.32C43.0237 12.608 42.853 13.12 42.853 13.856V18H40.117V9.072H42.853V10.56ZM55.3767 13.392C55.3767 13.648 55.3608 13.9147 55.3288 14.192H49.1368C49.1794 14.7467 49.3554 15.1733 49.6648 15.472C49.9848 15.76 50.3741 15.904 50.8328 15.904C51.5154 15.904 51.9901 15.616 52.2568 15.04H55.1688C55.0194 15.6267 54.7474 16.1547 54.3528 16.624C53.9688 17.0933 53.4834 17.4613 52.8968 17.728C52.3101 17.9947 51.6541 18.128 50.9288 18.128C50.0541 18.128 49.2754 17.9413 48.5928 17.568C47.9101 17.1947 47.3768 16.6613 46.9928 15.968C46.6088 15.2747 46.4168 14.464 46.4168 13.536C46.4168 12.608 46.6034 11.7973 46.9768 11.104C47.3608 10.4107 47.8941 9.87733 48.5768 9.504C49.2594 9.13067 50.0434 8.944 50.9288 8.944C51.7928 8.944 52.5608 9.12533 53.2328 9.488C53.9048 9.85067 54.4274 10.368 54.8008 11.04C55.1848 11.712 55.3767 12.496 55.3767 13.392ZM52.5768 12.672C52.5768 12.2027 52.4168 11.8293 52.0968 11.552C51.7768 11.2747 51.3768 11.136 50.8968 11.136C50.4381 11.136 50.0488 11.2693 49.7288 11.536C49.4194 11.8027 49.2274 12.1813 49.1528 12.672H52.5768ZM65.6668 18L62.9468 14.256V18H60.2108V6.16H62.9468V12.704L65.6508 9.072H69.0268L65.3148 13.552L69.0588 18H65.6668ZM75.5414 8.976C76.5867 8.976 77.4187 9.31733 78.0374 10C78.6667 10.672 78.9814 11.6 78.9814 12.784V18H76.2614V13.152C76.2614 12.5547 76.1067 12.0907 75.7974 11.76C75.488 11.4293 75.072 11.264 74.5494 11.264C74.0267 11.264 73.6107 11.4293 73.3014 11.76C72.992 12.0907 72.8374 12.5547 72.8374 13.152V18H70.1014V9.072H72.8374V10.256C73.1147 9.86133 73.488 9.552 73.9574 9.328C74.4267 9.09333 74.9547 8.976 75.5414 8.976ZM84.9466 18.128C84.072 18.128 83.2826 17.9413 82.5786 17.568C81.8853 17.1947 81.336 16.6613 80.9306 15.968C80.536 15.2747 80.3386 14.464 80.3386 13.536C80.3386 12.6187 80.5413 11.8133 80.9466 11.12C81.352 10.416 81.9066 9.87733 82.6106 9.504C83.3146 9.13067 84.104 8.944 84.9786 8.944C85.8533 8.944 86.6426 9.13067 87.3466 9.504C88.0506 9.87733 88.6053 10.416 89.0106 11.12C89.416 11.8133 89.6186 12.6187 89.6186 13.536C89.6186 14.4533 89.4106 15.264 88.9946 15.968C88.5893 16.6613 88.0293 17.1947 87.3146 17.568C86.6106 17.9413 85.8213 18.128 84.9466 18.128ZM84.9466 15.76C85.4693 15.76 85.912 15.568 86.2746 15.184C86.648 14.8 86.8346 14.2507 86.8346 13.536C86.8346 12.8213 86.6533 12.272 86.2906 11.888C85.9386 11.504 85.5013 11.312 84.9786 11.312C84.4453 11.312 84.0026 11.504 83.6506 11.888C83.2986 12.2613 83.1226 12.8107 83.1226 13.536C83.1226 14.2507 83.2933 14.8 83.6346 15.184C83.9866 15.568 84.424 15.76 84.9466 15.76ZM103.886 9.072L101.47 18H98.4461L97.0381 12.208L95.5821 18H92.5741L90.1421 9.072H92.8781L94.1421 15.456L95.6461 9.072H98.5421L100.062 15.424L101.31 9.072H103.886ZM115.312 16.016H111.12L110.448 18H107.584L111.648 6.768H114.816L118.88 18H115.984L115.312 16.016ZM114.608 13.904L113.216 9.792L111.84 13.904H114.608ZM122.853 10.336C123.109 9.92 123.477 9.584 123.957 9.328C124.437 9.072 124.986 8.944 125.605 8.944C126.341 8.944 127.008 9.13067 127.605 9.504C128.202 9.87733 128.672 10.4107 129.013 11.104C129.365 11.7973 129.541 12.6027 129.541 13.52C129.541 14.4373 129.365 15.248 129.013 15.952C128.672 16.6453 128.202 17.184 127.605 17.568C127.008 17.9413 126.341 18.128 125.605 18.128C124.976 18.128 124.426 18.0053 123.957 17.76C123.488 17.504 123.12 17.168 122.853 16.752V18H120.117V6.16H122.853V10.336ZM126.757 13.52C126.757 12.8373 126.565 12.304 126.181 11.92C125.808 11.5253 125.344 11.328 124.789 11.328C124.245 11.328 123.781 11.5253 123.397 11.92C123.024 12.3147 122.837 12.8533 122.837 13.536C122.837 14.2187 123.024 14.7573 123.397 15.152C123.781 15.5467 124.245 15.744 124.789 15.744C125.333 15.744 125.797 15.5467 126.181 15.152C126.565 14.7467 126.757 14.2027 126.757 13.52ZM135.04 18.128C134.166 18.128 133.376 17.9413 132.672 17.568C131.979 17.1947 131.43 16.6613 131.024 15.968C130.63 15.2747 130.432 14.464 130.432 13.536C130.432 12.6187 130.635 11.8133 131.04 11.12C131.446 10.416 132 9.87733 132.704 9.504C133.408 9.13067 134.198 8.944 135.072 8.944C135.947 8.944 136.736 9.13067 137.44 9.504C138.144 9.87733 138.699 10.416 139.104 11.12C139.51 11.8133 139.712 12.6187 139.712 13.536C139.712 14.4533 139.504 15.264 139.088 15.968C138.683 16.6613 138.123 17.1947 137.408 17.568C136.704 17.9413 135.915 18.128 135.04 18.128ZM135.04 15.76C135.563 15.76 136.006 15.568 136.368 15.184C136.742 14.8 136.928 14.2507 136.928 13.536C136.928 12.8213 136.747 12.272 136.384 11.888C136.032 11.504 135.595 11.312 135.072 11.312C134.539 11.312 134.096 11.504 133.744 11.888C133.392 12.2613 133.216 12.8107 133.216 13.536C133.216 14.2507 133.387 14.8 133.728 15.184C134.08 15.568 134.518 15.76 135.04 15.76ZM149.98 9.072V18H147.244V16.784C146.967 17.1787 146.588 17.4987 146.108 17.744C145.639 17.9787 145.116 18.096 144.54 18.096C143.857 18.096 143.255 17.9467 142.732 17.648C142.209 17.3387 141.804 16.896 141.516 16.32C141.228 15.744 141.084 15.0667 141.084 14.288V9.072H143.804V13.92C143.804 14.5173 143.959 14.9813 144.268 15.312C144.577 15.6427 144.993 15.808 145.516 15.808C146.049 15.808 146.471 15.6427 146.78 15.312C147.089 14.9813 147.244 14.5173 147.244 13.92V9.072H149.98ZM156.921 15.68V18H155.529C154.537 18 153.764 17.76 153.209 17.28C152.654 16.7893 152.377 15.9947 152.377 14.896V11.344H151.289V9.072H152.377V6.896H155.113V9.072H156.905V11.344H155.113V14.928C155.113 15.1947 155.177 15.3867 155.305 15.504C155.433 15.6213 155.646 15.68 155.945 15.68H156.921ZM170.652 9.072V18H167.916V16.784C167.638 17.1787 167.26 17.4987 166.78 17.744C166.31 17.9787 165.788 18.096 165.212 18.096C164.529 18.096 163.926 17.9467 163.404 17.648C162.881 17.3387 162.476 16.896 162.188 16.32C161.9 15.744 161.756 15.0667 161.756 14.288V9.072H164.476V13.92C164.476 14.5173 164.63 14.9813 164.94 15.312C165.249 15.6427 165.665 15.808 166.188 15.808C166.721 15.808 167.142 15.6427 167.452 15.312C167.761 14.9813 167.916 14.5173 167.916 13.92V9.072H170.652ZM176.249 18.128C175.47 18.128 174.777 17.9947 174.169 17.728C173.561 17.4613 173.081 17.0987 172.729 16.64C172.377 16.1707 172.18 15.648 172.137 15.072H174.841C174.873 15.3813 175.017 15.632 175.273 15.824C175.529 16.016 175.844 16.112 176.217 16.112C176.558 16.112 176.82 16.048 177.001 15.92C177.193 15.7813 177.289 15.6053 177.289 15.392C177.289 15.136 177.156 14.9493 176.889 14.832C176.622 14.704 176.19 14.5653 175.593 14.416C174.953 14.2667 174.42 14.112 173.993 13.952C173.566 13.7813 173.198 13.52 172.889 13.168C172.58 12.8053 172.425 12.32 172.425 11.712C172.425 11.2 172.564 10.736 172.841 10.32C173.129 9.89333 173.545 9.55733 174.089 9.312C174.644 9.06667 175.3 8.944 176.057 8.944C177.177 8.944 178.057 9.22133 178.697 9.776C179.348 10.3307 179.721 11.0667 179.817 11.984H177.289C177.246 11.6747 177.108 11.4293 176.873 11.248C176.649 11.0667 176.35 10.976 175.977 10.976C175.657 10.976 175.412 11.04 175.241 11.168C175.07 11.2853 174.985 11.4507 174.985 11.664C174.985 11.92 175.118 12.112 175.385 12.24C175.662 12.368 176.089 12.496 176.665 12.624C177.326 12.7947 177.865 12.9653 178.281 13.136C178.697 13.296 179.06 13.5627 179.369 13.936C179.689 14.2987 179.854 14.7893 179.865 15.408C179.865 15.9307 179.716 16.4 179.417 16.816C179.129 17.2213 178.708 17.5413 178.153 17.776C177.609 18.0107 176.974 18.128 176.249 18.128Z" fill="#D4D6D4"/>
<path d="M5.71875 19.6H14.2564V20.4H5.71875V19.6Z" fill="#D4D6D4"/>
<path d="M14.25 19.6H180.553V20.4H14.25V19.6Z" fill="#D4D6D4"/>
</svg>
