<svg width="141" height="23" viewBox="0 0 141 23" fill="none" xmlns="http://www.w3.org/2000/svg">
<path d="M5.14286 12.2857C5.14286 12.1339 5.08036 11.9911 4.97321 11.8839L0.973214 7.88393C0.866071 7.77678 0.723214 7.71428 0.571429 7.71428C0.258929 7.71428 0 7.97321 0 8.28571V16.2857C0 16.5982 0.258929 16.8571 0.571429 16.8571C0.723214 16.8571 0.866071 16.7946 0.973214 16.6875L4.97321 12.6875C5.08036 12.5804 5.14286 12.4375 5.14286 12.2857ZM19.306 18.112C18.4847 18.112 17.7487 17.9787 17.098 17.712C16.4473 17.4453 15.9247 17.0507 15.53 16.528C15.146 16.0053 14.9433 15.376 14.922 14.64H17.834C17.8767 15.056 18.0207 15.376 18.266 15.6C18.5113 15.8133 18.8313 15.92 19.226 15.92C19.6313 15.92 19.9513 15.8293 20.186 15.648C20.4207 15.456 20.538 15.1947 20.538 14.864C20.538 14.5867 20.442 14.3573 20.25 14.176C20.0687 13.9947 19.8393 13.8453 19.562 13.728C19.2953 13.6107 18.9113 13.4773 18.41 13.328C17.6847 13.104 17.0927 12.88 16.634 12.656C16.1753 12.432 15.7807 12.1013 15.45 11.664C15.1193 11.2267 14.954 10.656 14.954 9.952C14.954 8.90667 15.3327 8.09067 16.09 7.504C16.8473 6.90667 17.834 6.608 19.05 6.608C20.2873 6.608 21.2847 6.90667 22.042 7.504C22.7993 8.09067 23.2047 8.912 23.258 9.968H20.298C20.2767 9.60533 20.1433 9.32267 19.898 9.12C19.6527 8.90667 19.338 8.8 18.954 8.8C18.6233 8.8 18.3567 8.89067 18.154 9.072C17.9513 9.24267 17.85 9.49333 17.85 9.824C17.85 10.1867 18.0207 10.4693 18.362 10.672C18.7033 10.8747 19.2367 11.0933 19.962 11.328C20.6873 11.5733 21.274 11.808 21.722 12.032C22.1807 12.256 22.5753 12.5813 22.906 13.008C23.2367 13.4347 23.402 13.984 23.402 14.656C23.402 15.296 23.2367 15.8773 22.906 16.4C22.586 16.9227 22.1167 17.3387 21.498 17.648C20.8793 17.9573 20.1487 18.112 19.306 18.112ZM33.5017 13.392C33.5017 13.648 33.4858 13.9147 33.4538 14.192H27.2618C27.3044 14.7467 27.4804 15.1733 27.7898 15.472C28.1098 15.76 28.4991 15.904 28.9578 15.904C29.6404 15.904 30.1151 15.616 30.3818 15.04H33.2938C33.1444 15.6267 32.8724 16.1547 32.4778 16.624C32.0938 17.0933 31.6084 17.4613 31.0218 17.728C30.4351 17.9947 29.7791 18.128 29.0538 18.128C28.1791 18.128 27.4004 17.9413 26.7178 17.568C26.0351 17.1947 25.5018 16.6613 25.1178 15.968C24.7338 15.2747 24.5418 14.464 24.5418 13.536C24.5418 12.608 24.7284 11.7973 25.1018 11.104C25.4858 10.4107 26.0191 9.87733 26.7018 9.504C27.3844 9.13067 28.1684 8.944 29.0538 8.944C29.9178 8.944 30.6858 9.12533 31.3578 9.488C32.0298 9.85067 32.5524 10.368 32.9258 11.04C33.3098 11.712 33.5017 12.496 33.5017 13.392ZM30.7018 12.672C30.7018 12.2027 30.5418 11.8293 30.2218 11.552C29.9018 11.2747 29.5018 11.136 29.0218 11.136C28.5631 11.136 28.1738 11.2693 27.8538 11.536C27.5444 11.8027 27.3524 12.1813 27.2778 12.672H30.7018ZM43.3611 13.392C43.3611 13.648 43.3451 13.9147 43.3131 14.192H37.1211C37.1638 14.7467 37.3398 15.1733 37.6491 15.472C37.9691 15.76 38.3585 15.904 38.8171 15.904C39.4998 15.904 39.9745 15.616 40.2411 15.04H43.1531C43.0038 15.6267 42.7318 16.1547 42.3371 16.624C41.9531 17.0933 41.4678 17.4613 40.8811 17.728C40.2945 17.9947 39.6385 18.128 38.9131 18.128C38.0385 18.128 37.2598 17.9413 36.5771 17.568C35.8945 17.1947 35.3611 16.6613 34.9771 15.968C34.5931 15.2747 34.4011 14.464 34.4011 13.536C34.4011 12.608 34.5878 11.7973 34.9611 11.104C35.3451 10.4107 35.8785 9.87733 36.5611 9.504C37.2438 9.13067 38.0278 8.944 38.9131 8.944C39.7771 8.944 40.5451 9.12533 41.2171 9.488C41.8891 9.85067 42.4118 10.368 42.7851 11.04C43.1691 11.712 43.3611 12.496 43.3611 13.392ZM40.5611 12.672C40.5611 12.2027 40.4011 11.8293 40.0811 11.552C39.7611 11.2747 39.3611 11.136 38.8811 11.136C38.4225 11.136 38.0331 11.2693 37.7131 11.536C37.4038 11.8027 37.2118 12.1813 37.1371 12.672H40.5611ZM47.7311 12.368C47.7311 11.2587 47.9711 10.272 48.4511 9.408C48.9311 8.53333 49.5978 7.856 50.4511 7.376C51.3151 6.88533 52.2911 6.64 53.3791 6.64C54.7125 6.64 55.8538 6.992 56.8031 7.696C57.7525 8.4 58.3871 9.36 58.7071 10.576H55.6991C55.4751 10.1067 55.1551 9.74933 54.7391 9.504C54.3338 9.25867 53.8698 9.136 53.3471 9.136C52.5045 9.136 51.8218 9.42933 51.2991 10.016C50.7765 10.6027 50.5151 11.3867 50.5151 12.368C50.5151 13.3493 50.7765 14.1333 51.2991 14.72C51.8218 15.3067 52.5045 15.6 53.3471 15.6C53.8698 15.6 54.3338 15.4773 54.7391 15.232C55.1551 14.9867 55.4751 14.6293 55.6991 14.16H58.7071C58.3871 15.376 57.7525 16.336 56.8031 17.04C55.8538 17.7333 54.7125 18.08 53.3791 18.08C52.2911 18.08 51.3151 17.84 50.4511 17.36C49.5978 16.8693 48.9311 16.192 48.4511 15.328C47.9711 14.464 47.7311 13.4773 47.7311 12.368ZM59.8386 13.52C59.8386 12.6027 60.0093 11.7973 60.3506 11.104C60.7026 10.4107 61.1773 9.87733 61.7746 9.504C62.372 9.13067 63.0386 8.944 63.7746 8.944C64.404 8.944 64.9533 9.072 65.4226 9.328C65.9026 9.584 66.2706 9.92 66.5266 10.336V9.072H69.2626V18H66.5266V16.736C66.26 17.152 65.8866 17.488 65.4066 17.744C64.9373 18 64.388 18.128 63.7586 18.128C63.0333 18.128 62.372 17.9413 61.7746 17.568C61.1773 17.184 60.7026 16.6453 60.3506 15.952C60.0093 15.248 59.8386 14.4373 59.8386 13.52ZM66.5266 13.536C66.5266 12.8533 66.3346 12.3147 65.9506 11.92C65.5773 11.5253 65.1186 11.328 64.5746 11.328C64.0306 11.328 63.5666 11.5253 63.1826 11.92C62.8093 12.304 62.6226 12.8373 62.6226 13.52C62.6226 14.2027 62.8093 14.7467 63.1826 15.152C63.5666 15.5467 64.0306 15.744 64.5746 15.744C65.1186 15.744 65.5773 15.5467 65.9506 15.152C66.3346 14.7573 66.5266 14.2187 66.5266 13.536ZM74.874 18.128C74.0953 18.128 73.402 17.9947 72.794 17.728C72.186 17.4613 71.706 17.0987 71.354 16.64C71.002 16.1707 70.8047 15.648 70.762 15.072H73.466C73.498 15.3813 73.642 15.632 73.898 15.824C74.154 16.016 74.4687 16.112 74.842 16.112C75.1833 16.112 75.4447 16.048 75.626 15.92C75.818 15.7813 75.914 15.6053 75.914 15.392C75.914 15.136 75.7807 14.9493 75.514 14.832C75.2473 14.704 74.8153 14.5653 74.218 14.416C73.578 14.2667 73.0447 14.112 72.618 13.952C72.1913 13.7813 71.8233 13.52 71.514 13.168C71.2047 12.8053 71.05 12.32 71.05 11.712C71.05 11.2 71.1887 10.736 71.466 10.32C71.754 9.89333 72.17 9.55733 72.714 9.312C73.2687 9.06667 73.9247 8.944 74.682 8.944C75.802 8.944 76.682 9.22133 77.322 9.776C77.9727 10.3307 78.346 11.0667 78.442 11.984H75.914C75.8713 11.6747 75.7327 11.4293 75.498 11.248C75.274 11.0667 74.9753 10.976 74.602 10.976C74.282 10.976 74.0367 11.04 73.866 11.168C73.6953 11.2853 73.61 11.4507 73.61 11.664C73.61 11.92 73.7433 12.112 74.01 12.24C74.2873 12.368 74.714 12.496 75.29 12.624C75.9513 12.7947 76.49 12.9653 76.906 13.136C77.322 13.296 77.6847 13.5627 77.994 13.936C78.314 14.2987 78.4793 14.7893 78.49 15.408C78.49 15.9307 78.3407 16.4 78.042 16.816C77.754 17.2213 77.3327 17.5413 76.778 17.776C76.234 18.0107 75.5993 18.128 74.874 18.128ZM88.5799 13.392C88.5799 13.648 88.5639 13.9147 88.5319 14.192H82.3399C82.3825 14.7467 82.5585 15.1733 82.8679 15.472C83.1879 15.76 83.5772 15.904 84.0359 15.904C84.7185 15.904 85.1932 15.616 85.4599 15.04H88.3719C88.2225 15.6267 87.9505 16.1547 87.5559 16.624C87.1719 17.0933 86.6865 17.4613 86.0999 17.728C85.5132 17.9947 84.8572 18.128 84.1319 18.128C83.2572 18.128 82.4785 17.9413 81.7959 17.568C81.1132 17.1947 80.5799 16.6613 80.1959 15.968C79.8119 15.2747 79.6199 14.464 79.6199 13.536C79.6199 12.608 79.8065 11.7973 80.1799 11.104C80.5639 10.4107 81.0972 9.87733 81.7799 9.504C82.4625 9.13067 83.2465 8.944 84.1319 8.944C84.9959 8.944 85.7639 9.12533 86.4359 9.488C87.1079 9.85067 87.6305 10.368 88.0039 11.04C88.3879 11.712 88.5799 12.496 88.5799 13.392ZM85.7799 12.672C85.7799 12.2027 85.6199 11.8293 85.2999 11.552C84.9799 11.2747 84.5799 11.136 84.0999 11.136C83.6412 11.136 83.2519 11.2693 82.9319 11.536C82.6225 11.8027 82.4305 12.1813 82.3559 12.672H85.7799ZM97.4779 18.112C96.6565 18.112 95.9205 17.9787 95.2699 17.712C94.6192 17.4453 94.0965 17.0507 93.7019 16.528C93.3179 16.0053 93.1152 15.376 93.0939 14.64H96.0059C96.0485 15.056 96.1925 15.376 96.4379 15.6C96.6832 15.8133 97.0032 15.92 97.3979 15.92C97.8032 15.92 98.1232 15.8293 98.3579 15.648C98.5925 15.456 98.7099 15.1947 98.7099 14.864C98.7099 14.5867 98.6139 14.3573 98.4219 14.176C98.2405 13.9947 98.0112 13.8453 97.7339 13.728C97.4672 13.6107 97.0832 13.4773 96.5819 13.328C95.8565 13.104 95.2645 12.88 94.8059 12.656C94.3472 12.432 93.9525 12.1013 93.6219 11.664C93.2912 11.2267 93.1259 10.656 93.1259 9.952C93.1259 8.90667 93.5045 8.09067 94.2619 7.504C95.0192 6.90667 96.0059 6.608 97.2219 6.608C98.4592 6.608 99.4565 6.90667 100.214 7.504C100.971 8.09067 101.377 8.912 101.43 9.968H98.4699C98.4485 9.60533 98.3152 9.32267 98.0699 9.12C97.8245 8.90667 97.5099 8.8 97.1259 8.8C96.7952 8.8 96.5285 8.89067 96.3259 9.072C96.1232 9.24267 96.0219 9.49333 96.0219 9.824C96.0219 10.1867 96.1925 10.4693 96.5339 10.672C96.8752 10.8747 97.4085 11.0933 98.1339 11.328C98.8592 11.5733 99.4459 11.808 99.8939 12.032C100.353 12.256 100.747 12.5813 101.078 13.008C101.409 13.4347 101.574 13.984 101.574 14.656C101.574 15.296 101.409 15.8773 101.078 16.4C100.758 16.9227 100.289 17.3387 99.6699 17.648C99.0512 17.9573 98.3205 18.112 97.4779 18.112ZM108.234 15.68V18H106.842C105.85 18 105.076 17.76 104.522 17.28C103.967 16.7893 103.69 15.9947 103.69 14.896V11.344H102.602V9.072H103.69V6.896H106.426V9.072H108.218V11.344H106.426V14.928C106.426 15.1947 106.49 15.3867 106.618 15.504C106.746 15.6213 106.959 15.68 107.258 15.68H108.234ZM118.574 9.072V18H115.838V16.784C115.56 17.1787 115.182 17.4987 114.702 17.744C114.232 17.9787 113.71 18.096 113.134 18.096C112.451 18.096 111.848 17.9467 111.326 17.648C110.803 17.3387 110.398 16.896 110.11 16.32C109.822 15.744 109.678 15.0667 109.678 14.288V9.072H112.398V13.92C112.398 14.5173 112.552 14.9813 112.862 15.312C113.171 15.6427 113.587 15.808 114.11 15.808C114.643 15.808 115.064 15.6427 115.374 15.312C115.683 14.9813 115.838 14.5173 115.838 13.92V9.072H118.574ZM119.995 13.52C119.995 12.6027 120.166 11.7973 120.507 11.104C120.859 10.4107 121.334 9.87733 121.931 9.504C122.528 9.13067 123.195 8.944 123.931 8.944C124.518 8.944 125.051 9.06667 125.531 9.312C126.022 9.55733 126.406 9.888 126.683 10.304V6.16H129.419V18H126.683V16.72C126.427 17.1467 126.059 17.488 125.579 17.744C125.11 18 124.56 18.128 123.931 18.128C123.195 18.128 122.528 17.9413 121.931 17.568C121.334 17.184 120.859 16.6453 120.507 15.952C120.166 15.248 119.995 14.4373 119.995 13.52ZM126.683 13.536C126.683 12.8533 126.491 12.3147 126.107 11.92C125.734 11.5253 125.275 11.328 124.731 11.328C124.187 11.328 123.723 11.5253 123.339 11.92C122.966 12.304 122.779 12.8373 122.779 13.52C122.779 14.2027 122.966 14.7467 123.339 15.152C123.723 15.5467 124.187 15.744 124.731 15.744C125.275 15.744 125.734 15.5467 126.107 15.152C126.491 14.7573 126.683 14.2187 126.683 13.536ZM140.518 9.072L134.918 22.24H131.974L134.022 17.696L130.39 9.072H133.446L135.51 14.656L137.558 9.072H140.518Z" fill="#D4D6D4"/>
<path d="M5.71875 19.6H14.2564V20.4H5.71875V19.6Z" fill="#D4D6D4"/>
<path d="M14.25 19.6H140.518V20.4H14.25V19.6Z" fill="#D4D6D4"/>
</svg>
