<svg width="162" height="23" viewBox="0 0 162 23" fill="none" xmlns="http://www.w3.org/2000/svg">
<path d="M5.14286 12.2857C5.14286 12.1339 5.08036 11.9911 4.97321 11.8839L0.973214 7.88393C0.866071 7.77678 0.723214 7.71428 0.571429 7.71428C0.258929 7.71428 0 7.97321 0 8.28571V16.2857C0 16.5982 0.258929 16.8571 0.571429 16.8571C0.723214 16.8571 0.866071 16.7946 0.973214 16.6875L4.97321 12.6875C5.08036 12.5804 5.14286 12.4375 5.14286 12.2857ZM17.978 15.888H21.562V18H15.242V6.768H17.978V15.888ZM25.603 8.96V11.232H29.267V13.344H25.603V15.808H29.747V18H22.867V6.768H29.747V8.96H25.603ZM39.6033 6.768V8.96H36.6273V18H33.8913V8.96H30.9153V6.768H39.6033ZM42.8804 5.2L42.6724 8.736H40.8324L40.6244 5.2H42.8804ZM48.5716 18.112C47.7503 18.112 47.0143 17.9787 46.3636 17.712C45.713 17.4453 45.1903 17.0507 44.7956 16.528C44.4116 16.0053 44.209 15.376 44.1876 14.64H47.0996C47.1423 15.056 47.2863 15.376 47.5316 15.6C47.777 15.8133 48.097 15.92 48.4916 15.92C48.897 15.92 49.217 15.8293 49.4516 15.648C49.6863 15.456 49.8036 15.1947 49.8036 14.864C49.8036 14.5867 49.7076 14.3573 49.5156 14.176C49.3343 13.9947 49.105 13.8453 48.8276 13.728C48.561 13.6107 48.177 13.4773 47.6756 13.328C46.9503 13.104 46.3583 12.88 45.8996 12.656C45.441 12.432 45.0463 12.1013 44.7156 11.664C44.385 11.2267 44.2196 10.656 44.2196 9.952C44.2196 8.90667 44.5983 8.09067 45.3556 7.504C46.113 6.90667 47.0996 6.608 48.3156 6.608C49.553 6.608 50.5503 6.90667 51.3076 7.504C52.065 8.09067 52.4703 8.912 52.5236 9.968H49.5636C49.5423 9.60533 49.409 9.32267 49.1636 9.12C48.9183 8.90667 48.6036 8.8 48.2196 8.8C47.889 8.8 47.6223 8.89067 47.4196 9.072C47.217 9.24267 47.1156 9.49333 47.1156 9.824C47.1156 10.1867 47.2863 10.4693 47.6276 10.672C47.969 10.8747 48.5023 11.0933 49.2276 11.328C49.953 11.5733 50.5396 11.808 50.9876 12.032C51.4463 12.256 51.841 12.5813 52.1716 13.008C52.5023 13.4347 52.6676 13.984 52.6676 14.656C52.6676 15.296 52.5023 15.8773 52.1716 16.4C51.8516 16.9227 51.3823 17.3387 50.7636 17.648C50.145 17.9573 49.4143 18.112 48.5716 18.112ZM65.198 10.32C64.9953 9.94667 64.702 9.664 64.318 9.472C63.9447 9.26933 63.502 9.168 62.99 9.168C62.1047 9.168 61.3953 9.46133 60.862 10.048C60.3287 10.624 60.062 11.3973 60.062 12.368C60.062 13.4027 60.3393 14.2133 60.894 14.8C61.4593 15.376 62.2327 15.664 63.214 15.664C63.886 15.664 64.4513 15.4933 64.91 15.152C65.3793 14.8107 65.7207 14.32 65.934 13.68H62.462V11.664H68.414V14.208C68.2113 14.8907 67.8647 15.5253 67.374 16.112C66.894 16.6987 66.2807 17.1733 65.534 17.536C64.7873 17.8987 63.9447 18.08 63.006 18.08C61.8967 18.08 60.9047 17.84 60.03 17.36C59.166 16.8693 58.4887 16.192 57.998 15.328C57.518 14.464 57.278 13.4773 57.278 12.368C57.278 11.2587 57.518 10.272 57.998 9.408C58.4887 8.53333 59.166 7.856 60.03 7.376C60.894 6.88533 61.8807 6.64 62.99 6.64C64.334 6.64 65.4647 6.96533 66.382 7.616C67.31 8.26667 67.9233 9.168 68.222 10.32H65.198ZM72.6655 8.96V11.232H76.3295V13.344H72.6655V15.808H76.8095V18H69.9295V6.768H76.8095V8.96H72.6655ZM86.6658 6.768V8.96H83.6898V18H80.9538V8.96H77.9778V6.768H86.6658ZM95.4935 18.112C94.6722 18.112 93.9362 17.9787 93.2855 17.712C92.6348 17.4453 92.1122 17.0507 91.7175 16.528C91.3335 16.0053 91.1308 15.376 91.1095 14.64H94.0215C94.0642 15.056 94.2082 15.376 94.4535 15.6C94.6988 15.8133 95.0188 15.92 95.4135 15.92C95.8188 15.92 96.1388 15.8293 96.3735 15.648C96.6082 15.456 96.7255 15.1947 96.7255 14.864C96.7255 14.5867 96.6295 14.3573 96.4375 14.176C96.2562 13.9947 96.0268 13.8453 95.7495 13.728C95.4828 13.6107 95.0988 13.4773 94.5975 13.328C93.8722 13.104 93.2802 12.88 92.8215 12.656C92.3628 12.432 91.9682 12.1013 91.6375 11.664C91.3068 11.2267 91.1415 10.656 91.1415 9.952C91.1415 8.90667 91.5202 8.09067 92.2775 7.504C93.0348 6.90667 94.0215 6.608 95.2375 6.608C96.4748 6.608 97.4722 6.90667 98.2295 7.504C98.9868 8.09067 99.3922 8.912 99.4455 9.968H96.4855C96.4642 9.60533 96.3308 9.32267 96.0855 9.12C95.8402 8.90667 95.5255 8.8 95.1415 8.8C94.8108 8.8 94.5442 8.89067 94.3415 9.072C94.1388 9.24267 94.0375 9.49333 94.0375 9.824C94.0375 10.1867 94.2082 10.4693 94.5495 10.672C94.8908 10.8747 95.4242 11.0933 96.1495 11.328C96.8748 11.5733 97.4615 11.808 97.9095 12.032C98.3682 12.256 98.7628 12.5813 99.0935 13.008C99.4242 13.4347 99.5895 13.984 99.5895 14.656C99.5895 15.296 99.4242 15.8773 99.0935 16.4C98.7735 16.9227 98.3042 17.3387 97.6855 17.648C97.0668 17.9573 96.3362 18.112 95.4935 18.112ZM109.353 6.768V8.96H106.377V18H103.641V8.96H100.665V6.768H109.353ZM117.718 16.016H113.526L112.854 18H109.99L114.054 6.768H117.222L121.286 18H118.39L117.718 16.016ZM117.014 13.904L115.622 9.792L114.246 13.904H117.014ZM128.251 18L125.915 13.76H125.259V18H122.523V6.768H127.115C128.001 6.768 128.753 6.92267 129.371 7.232C130.001 7.54133 130.47 7.968 130.779 8.512C131.089 9.04533 131.243 9.64267 131.243 10.304C131.243 11.0507 131.03 11.7173 130.603 12.304C130.187 12.8907 129.569 13.3067 128.747 13.552L131.339 18H128.251ZM125.259 11.824H126.955C127.457 11.824 127.83 11.7013 128.075 11.456C128.331 11.2107 128.459 10.864 128.459 10.416C128.459 9.98933 128.331 9.65333 128.075 9.408C127.83 9.16267 127.457 9.04 126.955 9.04H125.259V11.824ZM141.041 6.768V8.96H138.065V18H135.329V8.96H132.353V6.768H141.041ZM145.15 8.96V11.232H148.814V13.344H145.15V15.808H149.294V18H142.414V6.768H149.294V8.96H145.15ZM155.278 6.768C156.462 6.768 157.497 7.00267 158.382 7.472C159.267 7.94133 159.95 8.60267 160.43 9.456C160.921 10.2987 161.166 11.2747 161.166 12.384C161.166 13.4827 160.921 14.4587 160.43 15.312C159.95 16.1653 159.262 16.8267 158.366 17.296C157.481 17.7653 156.451 18 155.278 18H151.07V6.768H155.278ZM155.102 15.632C156.137 15.632 156.942 15.3493 157.518 14.784C158.094 14.2187 158.382 13.4187 158.382 12.384C158.382 11.3493 158.094 10.544 157.518 9.968C156.942 9.392 156.137 9.104 155.102 9.104H153.806V15.632H155.102Z" fill="#D4D6D4"/>
<path d="M5.71875 19.6H14.2564V20.4H5.71875V19.6Z" fill="#D4D6D4"/>
<path d="M14.25 19.6H161.71V20.4H14.25V19.6Z" fill="#D4D6D4"/>
</svg>
