<svg width="102" height="24" viewBox="0 0 102 24" fill="none" xmlns="http://www.w3.org/2000/svg">
<path d="M5.14286 12.2857C5.14286 12.1339 5.08036 11.9911 4.97321 11.8839L0.973214 7.88393C0.866071 7.77678 0.723214 7.71428 0.571429 7.71428C0.258929 7.71428 0 7.97321 0 8.28571V16.2857C0 16.5982 0.258929 16.8571 0.571429 16.8571C0.723214 16.8571 0.866071 16.7946 0.973214 16.6875L4.97321 12.6875C5.08036 12.5804 5.14286 12.4375 5.14286 12.2857ZM20.97 18L18.634 13.76H17.978V18H15.242V6.768H19.834C20.7193 6.768 21.4713 6.92267 22.09 7.232C22.7193 7.54133 23.1887 7.968 23.498 8.512C23.8073 9.04533 23.962 9.64267 23.962 10.304C23.962 11.0507 23.7487 11.7173 23.322 12.304C22.906 12.8907 22.2873 13.3067 21.466 13.552L24.058 18H20.97ZM17.978 11.824H19.674C20.1753 11.824 20.5487 11.7013 20.794 11.456C21.05 11.2107 21.178 10.864 21.178 10.416C21.178 9.98933 21.05 9.65333 20.794 9.408C20.5487 9.16267 20.1753 9.04 19.674 9.04H17.978V11.824ZM34.0955 13.392C34.0955 13.648 34.0795 13.9147 34.0475 14.192H27.8555C27.8982 14.7467 28.0742 15.1733 28.3835 15.472C28.7035 15.76 29.0928 15.904 29.5515 15.904C30.2342 15.904 30.7088 15.616 30.9755 15.04H33.8875C33.7382 15.6267 33.4662 16.1547 33.0715 16.624C32.6875 17.0933 32.2022 17.4613 31.6155 17.728C31.0288 17.9947 30.3728 18.128 29.6475 18.128C28.7728 18.128 27.9942 17.9413 27.3115 17.568C26.6288 17.1947 26.0955 16.6613 25.7115 15.968C25.3275 15.2747 25.1355 14.464 25.1355 13.536C25.1355 12.608 25.3222 11.7973 25.6955 11.104C26.0795 10.4107 26.6128 9.87733 27.2955 9.504C27.9782 9.13067 28.7622 8.944 29.6475 8.944C30.5115 8.944 31.2795 9.12533 31.9515 9.488C32.6235 9.85067 33.1462 10.368 33.5195 11.04C33.9035 11.712 34.0955 12.496 34.0955 13.392ZM31.2955 12.672C31.2955 12.2027 31.1355 11.8293 30.8155 11.552C30.4955 11.2747 30.0955 11.136 29.6155 11.136C29.1568 11.136 28.7675 11.2693 28.4475 11.536C28.1382 11.8027 27.9462 12.1813 27.8715 12.672H31.2955ZM34.9949 13.52C34.9949 12.6027 35.1655 11.7973 35.5069 11.104C35.8589 10.4107 36.3335 9.87733 36.9309 9.504C37.5282 9.13067 38.1949 8.944 38.9309 8.944C39.5602 8.944 40.1095 9.072 40.5789 9.328C41.0589 9.584 41.4269 9.92 41.6829 10.336V9.072H44.4189V18H41.6829V16.736C41.4162 17.152 41.0429 17.488 40.5629 17.744C40.0935 18 39.5442 18.128 38.9149 18.128C38.1895 18.128 37.5282 17.9413 36.9309 17.568C36.3335 17.184 35.8589 16.6453 35.5069 15.952C35.1655 15.248 34.9949 14.4373 34.9949 13.52ZM41.6829 13.536C41.6829 12.8533 41.4909 12.3147 41.1069 11.92C40.7335 11.5253 40.2749 11.328 39.7309 11.328C39.1869 11.328 38.7229 11.5253 38.3389 11.92C37.9655 12.304 37.7789 12.8373 37.7789 13.52C37.7789 14.2027 37.9655 14.7467 38.3389 15.152C38.7229 15.5467 39.1869 15.744 39.7309 15.744C40.2749 15.744 40.7335 15.5467 41.1069 15.152C41.4909 14.7573 41.6829 14.2187 41.6829 13.536ZM45.8543 13.52C45.8543 12.6027 46.0249 11.7973 46.3663 11.104C46.7183 10.4107 47.1929 9.87733 47.7903 9.504C48.3876 9.13067 49.0543 8.944 49.7903 8.944C50.3769 8.944 50.9103 9.06667 51.3903 9.312C51.8809 9.55733 52.2649 9.888 52.5423 10.304V6.16H55.2783V18H52.5423V16.72C52.2863 17.1467 51.9183 17.488 51.4383 17.744C50.9689 18 50.4196 18.128 49.7903 18.128C49.0543 18.128 48.3876 17.9413 47.7903 17.568C47.1929 17.184 46.7183 16.6453 46.3663 15.952C46.0249 15.248 45.8543 14.4373 45.8543 13.52ZM52.5423 13.536C52.5423 12.8533 52.3503 12.3147 51.9663 11.92C51.5929 11.5253 51.1343 11.328 50.5903 11.328C50.0463 11.328 49.5823 11.5253 49.1983 11.92C48.8249 12.304 48.6383 12.8373 48.6383 13.52C48.6383 14.2027 48.8249 14.7467 49.1983 15.152C49.5823 15.5467 50.0463 15.744 50.5903 15.744C51.1343 15.744 51.5929 15.5467 51.9663 15.152C52.3503 14.7573 52.5423 14.2187 52.5423 13.536ZM73.3683 6.768V18H70.6323V11.264L68.1203 18H65.9123L63.3843 11.248V18H60.6483V6.768H63.8802L67.0323 14.544L70.1523 6.768H73.3683ZM79.3998 18.128C78.5251 18.128 77.7358 17.9413 77.0318 17.568C76.3384 17.1947 75.7891 16.6613 75.3838 15.968C74.9891 15.2747 74.7918 14.464 74.7918 13.536C74.7918 12.6187 74.9944 11.8133 75.3997 11.12C75.8051 10.416 76.3598 9.87733 77.0638 9.504C77.7678 9.13067 78.5571 8.944 79.4318 8.944C80.3064 8.944 81.0958 9.13067 81.7998 9.504C82.5038 9.87733 83.0584 10.416 83.4638 11.12C83.8691 11.8133 84.0718 12.6187 84.0718 13.536C84.0718 14.4533 83.8638 15.264 83.4478 15.968C83.0424 16.6613 82.4824 17.1947 81.7678 17.568C81.0638 17.9413 80.2744 18.128 79.3998 18.128ZM79.3998 15.76C79.9224 15.76 80.3651 15.568 80.7278 15.184C81.1011 14.8 81.2878 14.2507 81.2878 13.536C81.2878 12.8213 81.1064 12.272 80.7438 11.888C80.3918 11.504 79.9544 11.312 79.4318 11.312C78.8984 11.312 78.4558 11.504 78.1038 11.888C77.7518 12.2613 77.5758 12.8107 77.5758 13.536C77.5758 14.2507 77.7464 14.8 78.0878 15.184C78.4398 15.568 78.8771 15.76 79.3998 15.76ZM88.2593 10.56C88.5793 10.0693 88.9793 9.68533 89.4593 9.408C89.9393 9.12 90.4726 8.976 91.0593 8.976V11.872H90.3073C89.6246 11.872 89.1126 12.0213 88.7713 12.32C88.4299 12.608 88.2593 13.12 88.2593 13.856V18H85.5233V9.072H88.2593V10.56ZM100.783 13.392C100.783 13.648 100.767 13.9147 100.735 14.192H94.543C94.5857 14.7467 94.7617 15.1733 95.071 15.472C95.391 15.76 95.7803 15.904 96.239 15.904C96.9217 15.904 97.3963 15.616 97.663 15.04H100.575C100.426 15.6267 100.154 16.1547 99.759 16.624C99.375 17.0933 98.8897 17.4613 98.303 17.728C97.7163 17.9947 97.0603 18.128 96.335 18.128C95.4603 18.128 94.6817 17.9413 93.999 17.568C93.3163 17.1947 92.783 16.6613 92.399 15.968C92.015 15.2747 91.823 14.464 91.823 13.536C91.823 12.608 92.0097 11.7973 92.383 11.104C92.767 10.4107 93.3003 9.87733 93.983 9.504C94.6657 9.13067 95.4497 8.944 96.335 8.944C97.199 8.944 97.967 9.12533 98.639 9.488C99.311 9.85067 99.8337 10.368 100.207 11.04C100.591 11.712 100.783 12.496 100.783 13.392ZM97.983 12.672C97.983 12.2027 97.823 11.8293 97.503 11.552C97.183 11.2747 96.783 11.136 96.303 11.136C95.8443 11.136 95.455 11.2693 95.135 11.536C94.8257 11.8027 94.6337 12.1813 94.559 12.672H97.983Z" fill="#D4D6D4"/>
<path d="M5.71875 19.6H14.2564V20.4H5.71875V19.6Z" fill="#D4D6D4"/>
<path d="M14.25 19.6H101.231V20.4H14.25V19.6Z" fill="#D4D6D4"/>
</svg>
